<svg width="96" height="96" viewBox="0 0 96 96" fill="none" xmlns="http://www.w3.org/2000/svg">
<rect width="96" height="96" rx="5" fill="#3095F2"/>
<g clip-path="url(#clip0)">
<path d="M43.8449 26.3431C34.1836 26.3431 26.3516 34.1751 26.3516 43.8365C26.3516 53.4978 34.1836 61.3298 43.8449 61.3298C53.5063 61.3298 61.3383 53.4978 61.3383 43.8365C61.3278 34.1795 53.5019 26.3536 43.8449 26.3431ZM43.8449 28.0091C48.9905 28.0132 53.8123 30.521 56.77 34.7316L54.6875 36.8141C54.1807 36.5075 53.6005 36.3434 53.0081 36.3393C51.1679 36.3393 49.6761 37.8311 49.6761 39.6714C49.679 40.2644 49.8421 40.8455 50.1484 41.3532L44.6938 46.8078C43.6609 46.1781 42.3629 46.1781 41.33 46.8078L37.5415 43.0193C37.8477 42.5115 38.0109 41.9304 38.0138 41.3374C38.0161 39.5008 36.5292 38.0101 34.6926 38.0078C33.1737 38.006 31.8466 39.0334 31.468 40.5044H28.3775C29.9547 33.221 36.3928 28.0201 43.8449 28.0091ZM54.6742 39.6714C54.6742 40.5915 53.9283 41.3374 53.0081 41.3374C52.0879 41.3374 51.3421 40.5915 51.3421 39.6714C51.3421 38.7512 52.0879 38.0053 53.0081 38.0053C53.9283 38.0053 54.6742 38.7512 54.6742 39.6714ZM44.6779 49.6676C44.6779 50.5878 43.9321 51.3336 43.0119 51.3336C42.0917 51.3336 41.3459 50.5878 41.3459 49.6676C41.3459 48.7474 42.0917 48.0015 43.0119 48.0015C43.9321 48.0015 44.6779 48.7474 44.6779 49.6676ZM36.3478 41.3374C36.3478 42.2576 35.6019 43.0034 34.6817 43.0034C33.7616 43.0034 33.0157 42.2576 33.0157 41.3374C33.0157 40.4172 33.7616 39.6714 34.6817 39.6714C35.6019 39.6714 36.3478 40.4172 36.3478 41.3374ZM51.5351 57.6756C49.1827 58.9818 46.5358 59.6661 43.8449 59.6637C35.1097 59.6696 28.0235 52.5932 28.0176 43.858C28.0172 43.2943 28.047 42.7308 28.1067 42.1703H31.468C31.8467 43.6369 33.167 44.6636 34.6817 44.6694C35.2747 44.6665 35.8559 44.5033 36.3636 44.1971L40.1522 47.9856C39.8459 48.4933 39.6828 49.0745 39.6798 49.6675C39.6798 51.5077 41.1717 52.9995 43.0119 52.9995C44.8522 52.9995 46.344 51.5077 46.344 49.6675C46.3411 49.0745 46.1779 48.4933 45.8717 47.9856L51.3263 42.531C51.834 42.8373 52.4151 43.0004 53.0081 43.0033C54.8484 43.0033 56.3402 41.5115 56.3402 39.6713C56.3373 39.0783 56.1741 38.4971 55.8679 37.9894L57.6838 36.1743C61.9234 43.8097 59.1705 53.4362 51.5351 57.6756Z" fill="white"/>
<path d="M64.6698 31.3415C66.1845 31.3358 67.5049 30.3092 67.8836 28.8425H73V27.1765H67.8836C67.5049 25.7097 66.1845 24.6831 64.6698 24.6774C62.8296 24.6774 61.3377 26.1692 61.3377 28.0095C61.3406 28.6025 61.5038 29.1836 61.81 29.6913L60.3464 31.1549C53.3434 22.0312 40.27 20.3121 31.1463 27.3152C22.0225 34.3182 20.3034 47.3917 27.3065 56.5154C33.9169 65.1275 46.0343 67.2166 55.1467 61.3152L57.6608 63.8292L58.8387 65.0071L65.5445 71.7129C67.25 73.4184 70.015 73.4184 71.7205 71.7129C73.426 70.0074 73.426 67.2424 71.7205 65.5369L65.0147 58.8311L63.8368 57.6532L61.3227 55.1392C65.7855 48.2651 65.7855 39.4086 61.3227 32.5344L62.9888 30.8684C63.4962 31.1747 64.0771 31.3382 64.6698 31.3415ZM64.6698 26.3434C65.59 26.3434 66.3358 27.0893 66.3358 28.0095C66.3358 28.9296 65.59 29.6755 64.6698 29.6755C63.7496 29.6755 63.0038 28.9296 63.0038 28.0095C63.0038 27.0893 63.7497 26.3434 64.6698 26.3434ZM70.5426 66.7148C71.6095 67.7577 71.6289 69.4681 70.586 70.535C69.543 71.6019 67.8327 71.6214 66.7658 70.5784C66.7511 70.5642 66.7367 70.5497 66.7223 70.535L60.0166 63.8292L63.8368 60.009L70.5426 66.7148ZM62.6589 58.8311L58.8387 62.6513L56.5329 60.3455C56.6503 60.2556 56.7603 60.1565 56.8761 60.064C56.9919 59.9715 57.126 59.8607 57.2501 59.7566C57.4325 59.6033 57.6125 59.4484 57.7891 59.2893C57.8799 59.206 57.9665 59.1227 58.0556 59.0394C58.3972 58.7195 58.7279 58.3888 59.0478 58.0472C59.1311 57.9581 59.2144 57.8715 59.2977 57.7807C59.4568 57.6041 59.6117 57.4242 59.765 57.2417C59.8694 57.1184 59.9719 56.9938 60.0724 56.8677C60.164 56.7527 60.2631 56.6428 60.3531 56.5253L62.6589 58.8311ZM59.4284 54.9618C59.166 55.3283 58.8953 55.6873 58.6096 56.033C58.5263 56.1338 58.4372 56.2313 58.3514 56.3304C58.0965 56.627 57.8332 56.9147 57.5617 57.1934C57.4434 57.3155 57.3231 57.4358 57.201 57.5541C56.9233 57.8257 56.6357 58.0889 56.338 58.3438C56.2388 58.4271 56.1414 58.5179 56.0406 58.602C55.6949 58.8878 55.3358 59.1585 54.9693 59.4209C46.3459 65.5816 34.361 63.5852 28.2003 54.9618C22.0396 46.3384 24.036 34.3534 32.6594 28.1927C41.2828 22.0321 53.2678 24.0284 59.4284 32.6519C64.1955 39.3246 64.1955 48.2891 59.4284 54.9618Z" fill="white"/>
</g>
<defs>
<clipPath id="clip0">
<rect width="50" height="50" fill="white" transform="translate(23 23)"/>
</clipPath>
</defs>
</svg>
