<?xml version="1.0" encoding="utf-8"?>
<!-- Generator: Adobe Illustrator 24.1.1, SVG Export Plug-In . SVG Version: 6.00 Build 0)  -->
<svg version="1.1" id="Layer_1" xmlns="http://www.w3.org/2000/svg" xmlns:xlink="http://www.w3.org/1999/xlink" x="0px" y="0px"
	 viewBox="0 0 324 278.1" style="enable-background:new 0 0 324 278.1;" xml:space="preserve">
<style type="text/css">
	.st0{fill-rule:evenodd;clip-rule:evenodd;fill:#FFFFFF;stroke:#979797;}
	.st1{fill:none;stroke:#4385F4;stroke-width:2;stroke-dasharray:3;}
	.st2{filter:url(#Adobe_OpacityMaskFilter);}
	.st3{fill-rule:evenodd;clip-rule:evenodd;fill:#FFFFFF;}
	.st4{mask:url(#b_1_);fill:none;stroke:#4385F4;stroke-width:12.399;}
	.st5{fill-rule:evenodd;clip-rule:evenodd;fill:#FF7058;}
	.st6{fill-rule:evenodd;clip-rule:evenodd;fill:#FFD15C;}
	.st7{fill-rule:evenodd;clip-rule:evenodd;fill:#F1543F;}
	.st8{fill-rule:evenodd;clip-rule:evenodd;fill:#F8B64C;}
	.st9{fill-rule:evenodd;clip-rule:evenodd;fill:#FFC952;}
	.st10{opacity:0.5;}
	.st11{fill-rule:evenodd;clip-rule:evenodd;fill:#4385F4;}
	.st12{opacity:0.5;fill-rule:evenodd;clip-rule:evenodd;fill:#4385F4;enable-background:new    ;}
	.st13{fill-rule:evenodd;clip-rule:evenodd;}
	.st14{fill-rule:evenodd;clip-rule:evenodd;fill:#FFA829;}
	.st15{fill-rule:evenodd;clip-rule:evenodd;fill:#2C72C6;}
	.st16{fill-rule:evenodd;clip-rule:evenodd;fill:#3D597A;}
</style>
<g>
	<path class="st0" d="M162.8,273.7c75,0,135.8-60.7,135.8-135.6c0-74.9-60.8-135.6-135.8-135.6C87.8,2.4,27,63.1,27,138
		C27,212.9,87.8,273.7,162.8,273.7"/>
	<path class="st1" d="M162,268c71.2,0,129-57.7,129-128.8c0-71.1-57.8-128.8-129-128.8c-71.2,0-129,57.7-129,128.8
		C33,210.3,90.8,268,162,268"/>
	<g transform="translate(22 8)">
		<defs>
			<filter id="Adobe_OpacityMaskFilter" filterUnits="userSpaceOnUse" x="-5.3" y="-14.2" width="290.9" height="290.5">
				<feColorMatrix  type="matrix" values="1 0 0 0 0  0 1 0 0 0  0 0 1 0 0  0 0 0 1 0"/>
			</filter>
		</defs>
		<mask maskUnits="userSpaceOnUse" x="-5.3" y="-14.2" width="290.9" height="290.5" id="b_1_">
			<g class="st2">
				<path id="a_1_" class="st3" d="M0.9,131.1c0,76.8,62.4,139.1,139.3,139.1s139.3-62.3,139.3-139.1S217.1-8,140.1-8
					S0.9,54.3,0.9,131.1z"/>
			</g>
		</mask>
		<path class="st4" d="M140.1,270.1c76.9,0,139.3-62.3,139.3-139.1S217.1-8,140.1-8C63.2-8,0.9,54.3,0.9,131.1
			S63.2,270.1,140.1,270.1L140.1,270.1z"/>
	</g>
	<path class="st5" d="M172.3,140.4h-15.8l2.7-5.7l2.3-5.4h5.7l2.3,5.4L172.3,140.4z"/>
	<path class="st6" d="M182.3,140.4h-35.9c-2,0-3.6,1.6-3.6,3.6v11.7h42.9v-11.7C185.9,142,184.3,140.4,182.3,140.4"/>
	<path class="st7" d="M169.6,134.6c-1.4,0.7-2.9,1.4-4.3,2l-0.9,0.2l-0.9-0.4c-1.4-0.5-2.9-1.3-4.3-2l2.3-5.4h5.6L169.6,134.6
		L169.6,134.6z"/>
	<path class="st8" d="M200.3,86.8c0,8.6-3.1,16.5-8.3,22.8c-6.6,7.9-16.5,13.1-27.6,13.1c-11.1,0-21-5-27.6-13.1
		c-5-6.1-8.3-14.2-8.3-22.8v-0.2h71.6v0.2L200.3,86.8L200.3,86.8z M121.3,79.4v7.3c0,17.9,11.1,33.3,26.7,39.8
		c5,2.2,10.6,3.2,16.3,3.2c5.7,0,11.3-1.1,16.3-3.2c15.6-6.5,26.7-21.9,26.7-39.8v-7.3L121.3,79.4L121.3,79.4z M192.4,69.6h-56
		c-1.3,0-2.2,1.1-2.2,2.2c0,1.3,0.9,2.3,2.2,2.3h56c1.3,0,2.2-1.1,2.2-2.2C194.5,70.6,193.6,69.6,192.4,69.6"/>
	<path class="st6" d="M192.4,74v19.4c0,17.9-11.1,34.2-28,40.7c-16.9-6.6-28-22.8-28-40.9V74H192.4z"/>
	<path class="st9" d="M136.4,76.7h55.8V74h-55.8L136.4,76.7z"/>
	<path class="st3" d="M178.4,84.2h-20.7c-7.5,1.8-7.6,8-7.6,8v20.9h7.9V94c0-1.6,1.6-1.9,1.6-1.9h18.7L178.4,84.2L178.4,84.2z
		 M161.9,94.4c0,0-1.6-0.2-1.6,1.3v6.3h10.6v1.9c0,0,0,0.9-1,0.9h-9.6v8.2h11.6c0,0,7-1.1,7.1-8.2V94.4
		C179,94.4,161.9,94.4,161.9,94.4z"/>
	<g class="st10">
		<path class="st11" d="M60.3,92.2C60.3,92.2,60.4,92.2,60.3,92.2C60.4,92.2,60.3,92.2,60.3,92.2 M53.8,109.3
			C53.8,109.3,53.8,109.2,53.8,109.3C53.8,109.2,53.8,109.3,53.8,109.3 M51.2,125.1C51.2,125,51.2,124.9,51.2,125.1
			C51.2,125,51.2,125,51.2,125.1 M48.5,142C48.5,142,48.5,142,48.5,142C48.5,142,48.5,142,48.5,142 M49.8,160.3
			C49.8,160.3,49.8,160.3,49.8,160.3C49.8,160.3,49.8,160.3,49.8,160.3 M52.5,177.4C52.5,177.4,52.5,177.3,52.5,177.4
			C52.5,177.3,52.5,177.3,52.5,177.4 M69.6,210.2C69.5,210.1,69.5,210.1,69.6,210.2C69.5,210.1,69.5,210.1,69.6,210.2 M82.7,225.9
			C82.7,225.8,82.6,225.8,82.7,225.9C82.6,225.8,82.7,225.8,82.7,225.9 M97.2,239c-0.1,0-0.1-0.1-0.1-0.1
			C97.1,238.9,97.1,238.9,97.2,239"/>
		<path class="st11" d="M160,243.7c-10.2,0.5-20.1-0.8-29.3-3.5c3.4-4.4-2.2-8.8-7.6-13c-5.6-4.2-11.3-8.4-11.3-8.4
			c-0.1,0.1,6.7,6.8,6,12.7c-0.2,1.5-0.2,2.8,0.1,4c-1.5-0.7-3.1-1.4-4.6-2.2c4-3.8-0.5-9.2-4.8-14.3c-4.6-5.2-9.2-10.3-9.2-10.3
			c-0.1,0.1,5.1,7.9,3.4,13.7c-0.5,1.5-0.7,2.8-0.6,4c-1.3-1-2.6-1.9-3.9-3c4.5-3.1,1.2-9.3-2-15.1c-3.4-5.9-6.9-11.6-6.9-11.6
			c-0.1,0,3.4,8.6,0.7,14.1c-0.7,1.4-1.2,2.7-1.3,3.9c-1.1-1.2-2.2-2.4-3.2-3.6c4.8-2.4,2.9-9.1,0.9-15.3
			c-2.2-6.4-4.7-12.3-4.6-12.4c-0.1,0,1.8,8.9-1.8,14c-1,1.3-1.6,2.5-2,3.7c-0.9-1.3-1.7-2.6-2.5-4c5.1-1.8,4.4-8.5,3.5-15
			c-1.1-6.6-2.4-12.7-2.4-12.8c-0.1,0,0.3,9-4.1,13.5c-1.2,1.1-2,2.2-2.6,3.3c-0.4-0.9-0.8-1.8-1.2-2.7c-0.3-0.7-0.6-1.4-0.8-2.1
			c5.1-1,5.6-7.4,5.7-13.5c0-6.2-0.4-12.1-0.4-12.2c-0.1,0-1,8.4-5.8,12c-1.3,0.9-2.2,1.9-2.9,2.8c-0.5-1.9-1-3.9-1.3-5.8
			c5.1-0.1,6.4-6.1,7.4-11.7c0.9-5.8,1.3-11.2,1.3-11.3c-0.1,0-2.1,7.6-7.1,10.3c-1.4,0.7-2.4,1.5-3.2,2.3c-0.2-2.2-0.4-4.4-0.5-6.6
			c4.9,0.6,6.9-4.7,8.6-9.9c1.5-5.2,2.7-10.3,2.6-10.3c-0.1,0-2.8,6.8-7.9,8.7c-1.4,0.5-2.5,1.1-3.4,1.8c0.1-2,0.2-3.9,0.3-5.9
			c0-0.5,0.1-0.9,0.1-1.4c4.4,1.2,7.1-3.5,9.2-8c2.1-4.6,3.6-9.3,3.6-9.4c-0.1,0-3.4,6-8.3,7.1c-1.3,0.3-2.4,0.7-3.3,1.2
			c0.4-2.6,0.9-5.1,1.5-7.7c3.9,1.6,6.9-2.4,9.3-6.4c2.4-4.1,4.3-8.5,4.3-8.5c0,0-3.8,5.4-8.5,5.7c-1.1,0.1-2.1,0.3-3,0.6
			c0.8-2.6,1.6-5.3,2.5-7.9c3.3,1.7,6.4-1.6,9-5c2.7-3.6,5-7.7,5-7.7c0,0-4.1,4.8-8.4,4.5c-0.9-0.1-1.7,0-2.4,0.1
			c1.1-2.6,2.2-5.1,3.4-7.7c0.1-0.2,0.1-0.3,0.2-0.5c2.7,1.7,5.8-1,8.5-4c2.9-3.2,5.6-7.1,5.6-7.1c-0.1,0-4.4,4.4-8.3,3.6
			c-0.9-0.2-1.7-0.2-2.5-0.1c2.6-5.4,5.5-11,9-16.6c-3.8,5.5-7.1,10.9-10.1,16.3c-0.3-0.9-0.8-1.8-1.5-2.7c-1.2-1.7-1.3-4.4-0.8-6.6
			c0.4-2.3,1.3-4.2,1.3-4.2c0,0-3.3,5.1-4.8,10.3c-1.5,5.1-1.5,9.9,2,10.5c-1.4,2.8-2.7,5.6-3.9,8.4c-0.4-0.7-1-1.4-1.8-2.1
			c-1.6-1.5-2-4.2-1.9-6.5c0.1-2.3,0.7-4.3,0.7-4.3c0,0-2.6,5.4-3.5,10.8c-0.9,5.1-0.2,9.9,3.4,10.3c-0.9,2.6-1.7,5.2-2.5,7.7
			c-0.5-0.6-1.2-1.2-2-1.7c-3.9-2.5-3.1-10.2-2.9-10.8c-0.2,0.5-2,6-2.2,11.4c-0.2,5.3,1.1,10.1,4.8,10.2c0,0,0,0,0,0.1
			c-0.5,2.4-1,4.7-1.3,7.1c-0.6-0.5-1.4-1-2.3-1.5c-4.4-2.1-4.7-10.1-4.6-10.7c-0.1,0.5-1.3,6.5-0.8,12.1c0.5,5.5,2.5,10.4,6.5,9.9
			c-0.2,2.2-0.3,4.4-0.4,6.7c-0.7-0.5-1.6-0.9-2.7-1.2c-4.8-1.5-6.2-9.4-6.3-10.4c0,0.9-0.5,7.1,0.8,12.7c1.2,5.7,4.2,10.7,8.3,9.5
			c0.1,2,0.3,4.1,0.5,6.1c-0.9-0.4-1.9-0.7-3.1-1c-5.3-0.9-7.9-9.3-8-10.1c0,0.7,0.4,7.5,2.7,13.3c2.1,5.9,6.1,10.9,10.2,8.7
			c0.4,1.9,0.8,3.7,1.3,5.6c-1-0.4-2.2-0.6-3.7-0.6c-5.8-0.2-9.8-9-9.9-9.5c0.1,0.5,1.5,7.7,4.9,13.7c3.2,6.1,8.3,10.9,12.3,7.6
			c0.6,1.6,1.3,3.3,2,4.9c-1.2-0.3-2.5-0.3-4.1-0.2c-6.2,0.7-11.8-8.3-11.9-8.6c0,0.2,2.8,7.9,7.3,13.8c4.4,6,10.7,10.3,14.3,6.1
			c0.8,1.4,1.6,2.7,2.5,4c-1.2-0.1-2.6,0-4.1,0.4c-6.2,1.6-13.4-6.9-13.3-7c-0.2,0,3.9,7.4,9.6,12.7c5.5,5.4,12.5,8.8,15.4,4
			c1.1,1.2,2.1,2.4,3.3,3.6c-1.3,0.1-2.6,0.4-4.1,1c-5.6,2.3-13.8-4.2-14.5-4.9c0.6,0.7,5.5,6.9,11.8,11.2
			c6.6,4.5,14.2,6.6,16.3,1.6c1.3,1,2.6,2.1,4,3.1c-1.3,0.3-2.6,0.8-4,1.6c-5.3,3.1-14.6-2-15.6-2.6c0.7,0.7,6.8,6,14,9.1
			c7.5,3.4,15.7,4.1,16.9-1c1.5,0.8,3.1,1.6,4.6,2.3c-1.2,0.5-2.5,1.2-3.7,2.2c-4.8,3.9-15.2,0.5-16.3,0c0.9,0.6,8,4.8,15.9,6.6
			c8.3,2,16.7,1.3,17.1-3.9c9.4,2.7,19.4,4,29.7,3.5L160,243.7L160,243.7z M266.3,92.2C266.3,92.2,266.3,92.2,266.3,92.2
			C266.3,92.2,266.3,92.2,266.3,92.2 M271.5,109.3C271.5,109.3,271.5,109.2,271.5,109.3C271.5,109.2,271.5,109.3,271.5,109.3
			 M275.5,125.1C275.5,125,275.5,124.9,275.5,125.1C275.5,125,275.5,125,275.5,125.1 M276.8,142C276.8,142,276.8,142,276.8,142
			C276.8,142,276.8,142,276.8,142 M276.8,160.3C276.8,160.3,276.8,160.3,276.8,160.3C276.8,160.3,276.8,160.3,276.8,160.3
			 M272.8,177.4C272.8,177.4,272.8,177.3,272.8,177.4C272.8,177.3,272.8,177.3,272.8,177.4 M257.1,210.2
			C257.1,210.1,257.2,210.1,257.1,210.2C257.2,210.1,257.1,210.1,257.1,210.2 M244,225.9C244,225.8,244.1,225.8,244,225.9
			C244.1,225.8,244,225.8,244,225.9 M229.6,239c0.1,0,0.1-0.1,0.1-0.1C229.7,238.9,229.6,238.9,229.6,239"/>
		<path class="st11" d="M165.3,243.7c10.2,0.5,20.1-0.8,29.3-3.5c-3.4-4.4,2.2-8.8,7.6-13c5.6-4.2,11.3-8.4,11.3-8.4
			c0.1,0.1-6.7,6.8-6,12.7c0.2,1.5,0.2,2.8-0.1,4c1.5-0.7,3.1-1.4,4.6-2.2c-4-3.8,0.5-9.2,4.8-14.3c4.6-5.2,9.2-10.3,9.2-10.3
			c0.1,0.1-5.1,7.9-3.4,13.7c0.5,1.5,0.7,2.8,0.6,4c1.3-1,2.6-1.9,3.9-3c-4.5-3.1-1.2-9.3,2-15.1c3.4-5.9,6.9-11.6,6.9-11.6
			c0.1,0-3.4,8.6-0.7,14.1c0.7,1.4,1.2,2.7,1.3,3.9c1.1-1.2,2.2-2.4,3.2-3.6c-4.8-2.4-2.9-9.1-0.9-15.3c2.2-6.4,4.7-12.3,4.6-12.4
			c0.1,0-1.8,8.9,1.8,14c1,1.3,1.6,2.5,2,3.7c0.9-1.3,1.7-2.6,2.5-4c-5.1-1.8-4.4-8.5-3.5-15c1.1-6.6,2.4-12.7,2.4-12.8
			c0.1,0-0.3,9,4.1,13.5c1.2,1.1,2,2.2,2.6,3.3c0.4-0.9,0.8-1.8,1.2-2.7c0.3-0.7,0.6-1.4,0.8-2.1c-5.1-1-5.6-7.4-5.7-13.5
			c0-6.2,0.4-12.1,0.4-12.2c0.1,0,1,8.4,5.8,12c1.3,0.9,2.2,1.9,2.9,2.8c0.5-1.9,1-3.9,1.4-5.8c-5.1-0.1-6.4-6.1-7.4-11.7
			c-0.9-5.8-1.3-11.2-1.3-11.3c0.1,0,2.1,7.6,7.1,10.3c1.4,0.7,2.4,1.5,3.2,2.3c0.2-2.2,0.4-4.4,0.5-6.6c-4.9,0.6-6.9-4.7-8.6-9.9
			c-1.5-5.2-2.7-10.3-2.6-10.3c0.1,0,2.8,6.8,7.9,8.7c1.4,0.5,2.5,1.1,3.4,1.8c-0.1-2-0.2-3.9-0.3-5.9c0-0.5-0.1-0.9-0.1-1.4
			c-4.4,1.2-7.1-3.5-9.2-8c-2.1-4.6-3.6-9.3-3.6-9.4c0.1,0,3.4,6,8.3,7.1c1.3,0.3,2.4,0.7,3.3,1.2c-0.4-2.6-0.9-5.1-1.5-7.7
			c-3.9,1.6-6.9-2.4-9.3-6.4c-2.4-4.1-4.3-8.5-4.3-8.5c0,0,3.8,5.4,8.5,5.7c1.1,0.1,2.1,0.3,3,0.6c-0.8-2.6-1.6-5.3-2.5-7.9
			c-3.3,1.7-6.4-1.6-9-5c-2.7-3.6-5-7.7-5-7.7c0,0,4.1,4.8,8.4,4.5c0.9-0.1,1.7,0,2.4,0.1c-1.1-2.6-2.2-5.1-3.4-7.7
			c-0.1-0.2-0.1-0.3-0.2-0.5c-2.7,1.7-5.8-1-8.5-4c-2.9-3.2-5.6-7.1-5.6-7.1c0.1,0,4.4,4.4,8.3,3.6c0.9-0.2,1.7-0.2,2.5-0.1
			c-2.6-5.4-5.5-11-9-16.6c3.8,5.5,7.1,10.9,10.1,16.3c0.3-0.9,0.8-1.8,1.5-2.7c1.2-1.7,1.3-4.4,0.8-6.6c-0.4-2.3-1.3-4.2-1.3-4.2
			c0,0,3.3,5.1,4.8,10.3c1.5,5.1,1.5,9.9-2,10.5c1.4,2.8,2.7,5.6,3.9,8.4c0.4-0.7,1-1.4,1.8-2.1c1.6-1.5,2-4.2,1.9-6.5
			c-0.1-2.3-0.7-4.3-0.7-4.3c0,0,2.6,5.4,3.5,10.8c0.9,5.1,0.2,9.9-3.4,10.3c0.9,2.6,1.7,5.2,2.5,7.7c0.5-0.6,1.2-1.2,2-1.7
			c3.9-2.5,3.1-10.2,2.9-10.8c0.2,0.5,2,6,2.2,11.4c0.2,5.3-1.1,10.1-4.8,10.2c0,0,0,0,0,0.1c0.5,2.4,1,4.7,1.3,7.1
			c0.6-0.5,1.4-1,2.3-1.5c4.4-2.1,4.7-10.1,4.6-10.7c0.1,0.5,1.3,6.5,0.8,12.1c-0.5,5.5-2.5,10.4-6.5,9.9c0.2,2.2,0.3,4.4,0.4,6.7
			c0.7-0.5,1.6-0.9,2.7-1.2c4.8-1.5,6.2-9.4,6.3-10.4c0,0.9,0.5,7.1-0.8,12.7c-1.2,5.7-4.2,10.7-8.3,9.5c-0.1,2-0.3,4.1-0.5,6.1
			c0.9-0.4,1.9-0.7,3.1-1c5.3-0.9,7.9-9.3,8-10.1c0,0.7-0.4,7.5-2.7,13.3c-2.1,5.9-6.1,10.9-10.2,8.7c-0.4,1.9-0.8,3.7-1.3,5.6
			c1-0.4,2.2-0.6,3.7-0.6c5.8-0.2,9.8-9,9.9-9.5c-0.1,0.5-1.5,7.7-4.9,13.7c-3.2,6.1-8.3,10.9-12.3,7.6c-0.6,1.6-1.3,3.3-2,4.9
			c1.2-0.3,2.5-0.3,4.1-0.2c6.2,0.7,11.8-8.3,11.9-8.6c0,0.2-2.8,7.9-7.3,13.8c-4.4,6-10.7,10.3-14.3,6.1c-0.8,1.4-1.6,2.7-2.5,4
			c1.2-0.1,2.6,0,4.1,0.4c6.2,1.6,13.4-6.9,13.3-7c0.2,0-3.9,7.4-9.6,12.7c-5.5,5.4-12.5,8.8-15.4,4c-1.1,1.2-2.1,2.4-3.3,3.6
			c1.3,0.1,2.6,0.4,4.1,1c5.6,2.3,13.8-4.2,14.5-4.9c-0.6,0.7-5.5,6.9-11.8,11.2c-6.6,4.5-14.2,6.6-16.3,1.6c-1.3,1-2.6,2.1-4,3.1
			c1.3,0.3,2.6,0.8,4,1.6c5.3,3.1,14.6-2,15.6-2.6c-0.7,0.7-6.8,6-14,9.1c-7.5,3.4-15.7,4.1-16.9-1c-1.5,0.8-3.1,1.6-4.6,2.3
			c1.2,0.5,2.5,1.2,3.7,2.2c4.8,3.9,15.2,0.5,16.3,0c-0.9,0.6-8,4.8-15.9,6.6c-8.3,2-16.7,1.3-17.1-3.9c-9.4,2.7-19.4,4-29.7,3.5
			L165.3,243.7L165.3,243.7z M59.8,91.9C59.8,91.8,59.8,91.8,59.8,91.9C59.8,91.8,59.8,91.8,59.8,91.9 M54.2,108.5
			C54.2,108.4,54.2,108.4,54.2,108.5C54.2,108.4,54.2,108.4,54.2,108.5 M50.6,125.5c0-0.1,0-0.1,0-0.1
			C50.6,125.4,50.6,125.4,50.6,125.5 M49,142.7C49,142.7,49,142.6,49,142.7C49,142.7,49,142.7,49,142.7 M49.6,160.2
			C49.6,160.1,49.6,160.1,49.6,160.2C49.6,160.1,49.6,160.1,49.6,160.2 M52.8,177.5C52.8,177.5,52.8,177.5,52.8,177.5
			C52.8,177.5,52.8,177.5,52.8,177.5 M69.2,211.2C69.1,211.1,69.1,211.1,69.2,211.2C69.1,211.1,69.1,211.1,69.2,211.2 M81.7,225.9
			C81.6,225.8,81.6,225.8,81.7,225.9C81.6,225.8,81.6,225.8,81.7,225.9 M97.1,238.4c-0.1,0-0.1-0.1-0.1-0.1
			C97,238.3,97,238.3,97.1,238.4"/>
		<path class="st12" d="M159.6,242.9c-10.1,0.5-19.9-0.8-29.1-3.5c3.4-4.4-2.2-8.7-7.6-12.9c-5.6-4.2-11.2-8.4-11.2-8.4
			c-0.1,0.1,6.6,6.8,6,12.6c-0.2,1.5-0.2,2.8,0.1,4c-1.5-0.7-3-1.4-4.5-2.2c3.9-3.8-0.5-9.2-4.8-14.3c-4.5-5.2-9.1-10.2-9.1-10.3
			c-0.1,0.1,5,7.9,3.3,13.6c-0.5,1.5-0.7,2.8-0.6,4c-1.3-1-2.6-1.9-3.9-3c4.4-3.1,1.2-9.3-1.9-15.1c-3.4-5.9-6.8-11.6-6.8-11.6
			c-0.1,0,3.4,8.6,0.7,14.1c-0.7,1.4-1.1,2.7-1.3,3.9c-1.1-1.2-2.2-2.4-3.2-3.6c4.7-2.4,2.9-9,0.9-15.3c-2.2-6.3-4.6-12.3-4.6-12.4
			c-0.1,0,1.8,8.9-1.8,14c-1,1.3-1.6,2.5-2,3.7c-0.9-1.3-1.7-2.6-2.5-4c5-1.8,4.4-8.5,3.5-14.9c-1.1-6.5-2.4-12.7-2.4-12.8
			c-0.1,0,0.3,9-4.1,13.5c-1.1,1.1-2,2.2-2.5,3.3c-0.4-0.9-0.8-1.8-1.1-2.7c-0.3-0.7-0.6-1.4-0.8-2.1c5.1-0.9,5.5-7.4,5.7-13.4
			c0-6.2-0.4-12.1-0.4-12.1c-0.1,0-1,8.3-5.8,11.9c-1.3,0.9-2.2,1.9-2.9,2.8c-0.5-1.9-0.9-3.8-1.3-5.8c5-0.1,6.4-6,7.4-11.7
			c0.8-5.7,1.3-11.2,1.3-11.3c-0.1,0-2,7.6-7,10.3c-1.4,0.7-2.4,1.5-3.2,2.3c-0.2-2.2-0.4-4.4-0.5-6.6c4.8,0.6,6.9-4.7,8.5-9.8
			c1.5-5.2,2.6-10.2,2.6-10.3c-0.1,0-2.8,6.8-7.8,8.6c-1.4,0.5-2.5,1.1-3.4,1.8c0.1-2,0.2-3.9,0.3-5.8c0-0.5,0.1-0.9,0.1-1.4
			c4.3,1.2,7.1-3.5,9.1-8c2-4.6,3.5-9.3,3.5-9.3c-0.1,0-3.4,6-8.3,7.1c-1.3,0.3-2.4,0.7-3.3,1.2c0.4-2.6,0.9-5.1,1.5-7.6
			c3.8,1.6,6.8-2.4,9.2-6.4c2.4-4.1,4.3-8.4,4.3-8.4c0,0-3.8,5.3-8.4,5.7c-1.1,0.1-2.1,0.3-2.9,0.6c0.8-2.6,1.6-5.3,2.5-7.9
			c3.2,1.7,6.4-1.6,8.9-5c2.7-3.6,4.9-7.7,4.9-7.7c0,0-4.1,4.8-8.4,4.5c-0.9-0.1-1.7,0-2.4,0.1c1.1-2.5,2.2-5.1,3.4-7.7
			c0.1-0.2,0.1-0.3,0.2-0.5c2.7,1.7,5.8-1,8.5-4c2.9-3.2,5.5-7.1,5.5-7.1c-0.1,0-4.4,4.4-8.2,3.6c-0.9-0.2-1.7-0.2-2.4-0.1
			c2.5-5.4,5.5-10.9,9-16.6c-3.7,5.5-7.1,10.9-10,16.3c-0.3-0.9-0.8-1.8-1.4-2.7c-1.2-1.7-1.3-4.3-0.8-6.6c0.4-2.3,1.3-4.2,1.2-4.2
			c0,0-3.2,5.1-4.7,10.2c-1.5,5.1-1.5,9.8,2,10.4c-1.4,2.8-2.7,5.6-3.8,8.4c-0.4-0.7-1-1.4-1.7-2.1c-1.6-1.5-2-4.2-1.9-6.5
			c0.1-2.3,0.7-4.3,0.7-4.3c0,0-2.6,5.4-3.5,10.8c-0.9,5.1-0.2,9.9,3.3,10.3c-0.9,2.6-1.7,5.1-2.5,7.7c-0.5-0.6-1.2-1.2-2-1.7
			c-3.8-2.5-3.1-10.2-2.9-10.7c-0.2,0.5-2,6-2.2,11.4c-0.2,5.3,1.1,10.1,4.8,10.1c0,0,0,0,0,0.1c-0.5,2.4-0.9,4.7-1.3,7.1
			c-0.6-0.5-1.4-1-2.3-1.5c-4.4-2.1-4.6-10-4.6-10.6c-0.1,0.5-1.3,6.4-0.8,12.1c0.5,5.5,2.5,10.4,6.4,9.9c-0.2,2.2-0.3,4.4-0.4,6.7
			c-0.7-0.5-1.6-0.9-2.7-1.2c-4.8-1.5-6.1-9.4-6.2-10.4c0,0.9-0.5,7.1,0.8,12.7c1.2,5.7,4.2,10.7,8.2,9.5c0.1,2,0.3,4.1,0.5,6.1
			c-0.9-0.4-1.9-0.7-3.1-1c-5.3-0.9-7.8-9.2-8-10c0,0.7,0.4,7.5,2.7,13.3c2.1,5.9,6.1,10.9,10.2,8.7c0.4,1.9,0.8,3.7,1.3,5.6
			c-1-0.4-2.2-0.6-3.6-0.6c-5.8-0.2-9.7-8.9-9.8-9.5c0.1,0.5,1.5,7.7,4.8,13.7c3.2,6.1,8.2,10.8,12.2,7.6c0.6,1.6,1.3,3.3,2,4.9
			c-1.2-0.3-2.5-0.3-4.1-0.2c-6.1,0.7-11.8-8.3-11.8-8.6c0,0.2,2.7,7.8,7.3,13.7c4.4,6,10.6,10.3,14.2,6.1c0.8,1.4,1.6,2.7,2.5,4
			c-1.2-0.1-2.6,0-4.1,0.4c-6.1,1.6-13.3-6.9-13.2-6.9c-0.2,0,3.9,7.4,9.6,12.7c5.4,5.3,12.4,8.7,15.3,4c1,1.2,2.1,2.4,3.2,3.6
			c-1.2,0.1-2.6,0.4-4,1c-5.6,2.3-13.7-4.2-14.4-4.9c0.6,0.7,5.4,6.9,11.7,11.1c6.5,4.5,14.1,6.6,16.2,1.6c1.3,1,2.6,2.1,4,3
			c-1.3,0.3-2.6,0.8-3.9,1.6c-5.2,3.1-14.5-2-15.4-2.6c0.7,0.7,6.7,6,13.9,9.1c7.4,3.4,15.5,4.1,16.8-1c1.5,0.8,3,1.6,4.6,2.3
			c-1.2,0.5-2.5,1.2-3.7,2.2c-4.8,3.9-15,0.5-16.2,0c0.9,0.6,8,4.8,15.8,6.6c8.2,2,16.6,1.3,17-3.9c9.3,2.7,19.2,4,29.5,3.5
			L159.6,242.9L159.6,242.9z"/>
		<path class="st11" d="M266.4,91.9C266.4,91.8,266.4,91.8,266.4,91.9C266.4,91.8,266.4,91.8,266.4,91.9 M272,108.5
			C272,108.4,272,108.4,272,108.5C272,108.4,272,108.4,272,108.5 M275.6,125.5c0-0.1,0-0.1,0-0.1
			C275.6,125.4,275.6,125.4,275.6,125.5 M277.2,142.7C277.2,142.7,277.2,142.6,277.2,142.7C277.2,142.7,277.2,142.7,277.2,142.7
			 M276.6,160.2C276.6,160.1,276.6,160.1,276.6,160.2C276.6,160.1,276.6,160.1,276.6,160.2 M273.4,177.5
			C273.4,177.5,273.4,177.5,273.4,177.5C273.4,177.5,273.4,177.5,273.4,177.5 M257,211.2C257.1,211.1,257.1,211.1,257,211.2
			C257.1,211.1,257.1,211.1,257,211.2 M244.5,225.9C244.5,225.8,244.6,225.8,244.5,225.9C244.6,225.8,244.5,225.8,244.5,225.9
			 M229.1,238.4c0.1,0,0.1-0.1,0.1-0.1C229.2,238.3,229.2,238.3,229.1,238.4"/>
		<path class="st12" d="M166.6,242.9c10.1,0.5,19.9-0.8,29.1-3.5c-3.4-4.4,2.2-8.7,7.6-12.9c5.6-4.2,11.2-8.4,11.2-8.4
			c0.1,0.1-6.6,6.8-6,12.6c0.2,1.5,0.2,2.8-0.1,4c1.5-0.7,3-1.4,4.5-2.2c-3.9-3.8,0.5-9.2,4.8-14.3c4.5-5.2,9.1-10.2,9.1-10.3
			c0.1,0.1-5,7.9-3.3,13.6c0.5,1.5,0.7,2.8,0.6,4c1.3-1,2.6-1.9,3.9-3c-4.4-3.1-1.2-9.3,1.9-15.1c3.4-5.9,6.8-11.6,6.8-11.6
			c0.1,0-3.4,8.6-0.7,14.1c0.7,1.4,1.1,2.7,1.3,3.9c1.1-1.2,2.2-2.4,3.2-3.6c-4.7-2.4-2.9-9-0.9-15.3c2.2-6.3,4.6-12.3,4.6-12.4
			c0.1,0-1.8,8.9,1.8,14c1,1.3,1.6,2.5,2,3.7c0.9-1.3,1.7-2.6,2.5-4c-5-1.8-4.4-8.5-3.5-14.9c1.1-6.5,2.4-12.7,2.4-12.8
			c0.1,0-0.3,9,4.1,13.5c1.1,1.1,2,2.2,2.5,3.3c0.4-0.9,0.8-1.8,1.1-2.7c0.3-0.7,0.6-1.4,0.8-2.1c-5.1-0.9-5.5-7.4-5.7-13.4
			c0-6.2,0.4-12.1,0.4-12.1c0.1,0,1,8.3,5.8,11.9c1.3,0.9,2.2,1.9,2.9,2.8c0.5-1.9,0.9-3.8,1.3-5.8c-5-0.1-6.4-6-7.4-11.7
			c-0.8-5.7-1.3-11.2-1.3-11.3c0.1,0,2,7.6,7,10.3c1.4,0.7,2.4,1.5,3.2,2.3c0.2-2.2,0.4-4.4,0.5-6.6c-4.8,0.6-6.9-4.7-8.5-9.8
			c-1.5-5.2-2.6-10.2-2.6-10.3c0.1,0,2.8,6.8,7.8,8.6c1.4,0.5,2.5,1.1,3.4,1.8c-0.1-2-0.2-3.9-0.3-5.8c0-0.5-0.1-0.9-0.1-1.4
			c-4.3,1.2-7.1-3.5-9.1-8c-2-4.6-3.5-9.3-3.5-9.3c0.1,0,3.4,6,8.3,7.1c1.3,0.3,2.4,0.7,3.3,1.2c-0.4-2.6-0.9-5.1-1.5-7.6
			c-3.8,1.6-6.8-2.4-9.2-6.4c-2.4-4.1-4.3-8.4-4.3-8.4c0,0,3.8,5.3,8.4,5.7c1.1,0.1,2.1,0.3,2.9,0.6c-0.8-2.6-1.6-5.3-2.5-7.9
			c-3.2,1.7-6.4-1.6-8.9-5c-2.7-3.6-4.9-7.7-4.9-7.7c0,0,4.1,4.8,8.4,4.5c0.9-0.1,1.7,0,2.4,0.1c-1.1-2.5-2.2-5.1-3.4-7.7
			c-0.1-0.2-0.1-0.3-0.2-0.5c-2.7,1.7-5.8-1-8.5-4c-2.9-3.2-5.5-7.1-5.5-7.1c0.1,0,4.4,4.4,8.2,3.6c0.9-0.2,1.7-0.2,2.4-0.1
			c-2.5-5.4-5.5-10.9-9-16.6c3.7,5.5,7.1,10.9,10,16.3c0.3-0.9,0.8-1.8,1.4-2.7c1.2-1.7,1.3-4.3,0.8-6.6c-0.4-2.3-1.3-4.2-1.2-4.2
			c0,0,3.2,5.1,4.7,10.2c1.5,5.1,1.5,9.8-2,10.4c1.4,2.8,2.7,5.6,3.8,8.4c0.4-0.7,1-1.4,1.7-2.1c1.6-1.5,2-4.2,1.9-6.5
			c-0.1-2.3-0.7-4.3-0.7-4.3c0,0,2.6,5.4,3.5,10.8c0.9,5.1,0.2,9.9-3.3,10.3c0.9,2.6,1.7,5.1,2.5,7.7c0.5-0.6,1.2-1.2,2-1.7
			c3.8-2.5,3.1-10.2,2.9-10.7c0.2,0.5,2,6,2.2,11.4c0.2,5.3-1.1,10.1-4.8,10.1c0,0,0,0,0,0.1c0.5,2.4,0.9,4.7,1.3,7.1
			c0.6-0.5,1.4-1,2.3-1.5c4.4-2.1,4.6-10,4.6-10.6c0.1,0.5,1.3,6.4,0.8,12.1c-0.5,5.5-2.5,10.4-6.4,9.9c0.2,2.2,0.3,4.4,0.4,6.7
			c0.7-0.5,1.6-0.9,2.7-1.2c4.8-1.5,6.1-9.4,6.2-10.4c0,0.9,0.5,7.1-0.8,12.7c-1.2,5.7-4.2,10.7-8.2,9.5c-0.1,2-0.3,4.1-0.5,6.1
			c0.9-0.4,1.9-0.7,3.1-1c5.3-0.9,7.8-9.2,8-10c0,0.7-0.4,7.5-2.7,13.3c-2.1,5.9-6.1,10.9-10.2,8.7c-0.4,1.9-0.8,3.7-1.3,5.6
			c1-0.4,2.2-0.6,3.6-0.6c5.8-0.2,9.7-8.9,9.8-9.5c-0.1,0.5-1.5,7.7-4.8,13.7c-3.2,6.1-8.2,10.8-12.2,7.6c-0.6,1.6-1.3,3.3-2,4.9
			c1.2-0.3,2.5-0.3,4.1-0.2c6.1,0.7,11.8-8.3,11.8-8.6c0,0.2-2.7,7.8-7.3,13.7c-4.4,6-10.6,10.3-14.2,6.1c-0.8,1.4-1.6,2.7-2.5,4
			c1.2-0.1,2.6,0,4.1,0.4c6.1,1.6,13.3-6.9,13.2-6.9c0.2,0-3.9,7.4-9.6,12.7c-5.4,5.3-12.4,8.7-15.3,4c-1,1.2-2.1,2.4-3.2,3.6
			c1.2,0.1,2.6,0.4,4,1c5.6,2.3,13.7-4.2,14.4-4.9c-0.6,0.7-5.4,6.9-11.7,11.1c-6.5,4.5-14.1,6.6-16.2,1.6c-1.3,1-2.6,2.1-4,3
			c1.3,0.3,2.6,0.8,3.9,1.6c5.2,3.1,14.5-2,15.4-2.6c-0.7,0.7-6.7,6-13.9,9.1c-7.4,3.4-15.5,4.1-16.8-1c-1.5,0.8-3,1.6-4.6,2.3
			c1.2,0.5,2.5,1.2,3.7,2.2c4.8,3.9,15,0.5,16.2,0c-0.9,0.6-8,4.8-15.8,6.6c-8.2,2-16.6,1.3-17-3.9c-9.3,2.7-19.2,4-29.5,3.5
			L166.6,242.9L166.6,242.9z"/>
	</g>
	<path class="st13" d="M129.6,223c-0.4-0.2-0.8-0.5-0.9-0.8s-0.3-0.6-0.3-0.8c0-0.1,0-0.1,0.1-0.2s0.1-0.1,0.2-0.1h1.1
		c0.1,0,0.1,0,0.2,0.1s0.1,0.1,0.1,0.2c0.1,0.2,0.2,0.4,0.4,0.5s0.4,0.2,0.8,0.2c0.5,0,0.8-0.1,1.1-0.3s0.3-0.6,0.3-1.1v-0.8
		c-0.4,0.5-1,0.8-1.8,0.8c-0.8,0-1.5-0.3-1.9-0.8c-0.4-0.5-0.6-1.2-0.7-2.1l0-0.3l0-0.3c0-0.9,0.3-1.5,0.7-2.1
		c0.4-0.5,1-0.8,1.9-0.8c0.4,0,0.8,0.1,1.1,0.2c0.3,0.2,0.6,0.4,0.8,0.6v-0.5c0-0.1,0-0.2,0.1-0.2s0.1-0.1,0.2-0.1h1
		c0.1,0,0.1,0,0.2,0.1s0.1,0.1,0.1,0.2l0,5.8c0,0.9-0.2,1.6-0.7,2.1c-0.5,0.5-1.2,0.7-2.2,0.7C130.7,223.3,130.1,223.2,129.6,223
		L129.6,223z M132.3,218.9c0.2-0.3,0.3-0.6,0.4-1.1c0-0.1,0-0.2,0-0.4s0-0.3,0-0.4c0-0.4-0.1-0.8-0.4-1.1s-0.6-0.4-1-0.4
		c-0.9,0-1.3,0.5-1.4,1.6l0,0.3c0,1.2,0.5,1.9,1.4,1.9C131.8,219.4,132.1,219.2,132.3,218.9L132.3,218.9z M136.5,220.1
		c-0.5-0.5-0.8-1.1-0.8-2l0-0.5l0-0.5c0-0.8,0.3-1.5,0.8-2c0.5-0.5,1.2-0.7,2.2-0.7c0.9,0,1.6,0.2,2.2,0.7c0.5,0.5,0.8,1.1,0.8,2
		c0,0.1,0,0.3,0,0.5s0,0.4,0,0.5c0,0.8-0.3,1.5-0.8,2c-0.5,0.5-1.2,0.7-2.2,0.7C137.8,220.8,137,220.6,136.5,220.1L136.5,220.1z
		 M139.7,219.2c0.2-0.3,0.4-0.7,0.4-1.2c0-0.1,0-0.2,0-0.5c0-0.2,0-0.4,0-0.5c0-0.5-0.1-0.9-0.4-1.2s-0.6-0.4-1-0.4
		c-0.4,0-0.8,0.1-1,0.4c-0.2,0.3-0.4,0.7-0.4,1.2l0,0.5l0,0.5c0,0.5,0.1,0.9,0.4,1.2s0.6,0.4,1,0.4S139.5,219.4,139.7,219.2z
		 M143.6,220.1c-0.5-0.5-0.8-1.1-0.8-2l0-0.5l0-0.5c0-0.8,0.3-1.5,0.8-2c0.5-0.5,1.2-0.7,2.2-0.7c0.9,0,1.6,0.2,2.2,0.7
		c0.5,0.5,0.8,1.1,0.8,2c0,0.1,0,0.3,0,0.5s0,0.4,0,0.5c0,0.8-0.3,1.5-0.8,2c-0.5,0.5-1.2,0.7-2.2,0.7
		C144.9,220.8,144.2,220.6,143.6,220.1L143.6,220.1z M146.8,219.2c0.2-0.3,0.4-0.7,0.4-1.2c0-0.1,0-0.2,0-0.5c0-0.2,0-0.4,0-0.5
		c0-0.5-0.1-0.9-0.4-1.2s-0.6-0.4-1-0.4c-0.4,0-0.8,0.1-1,0.4c-0.2,0.3-0.4,0.7-0.4,1.2l0,0.5l0,0.5c0,0.5,0.1,0.9,0.4,1.2
		s0.6,0.4,1,0.4S146.6,219.4,146.8,219.2z M150.6,220c-0.4-0.5-0.7-1.2-0.7-2.1l0-0.4l0-0.4c0-0.8,0.3-1.5,0.7-2.1s1.1-0.8,1.9-0.8
		c0.8,0,1.4,0.3,1.8,0.8v-2.7c0-0.1,0-0.2,0.1-0.2s0.1-0.1,0.2-0.1h1c0.1,0,0.2,0,0.2,0.1s0.1,0.1,0.1,0.2v7.9c0,0.1,0,0.1-0.1,0.2
		s-0.1,0.1-0.2,0.1h-1c-0.1,0-0.1,0-0.2-0.1s-0.1-0.1-0.1-0.2v-0.4c-0.4,0.6-1.1,0.9-1.9,0.9C151.7,220.8,151.1,220.5,150.6,220
		L150.6,220z M154,219.1c0.2-0.3,0.3-0.7,0.4-1.1c0-0.1,0-0.2,0-0.5c0-0.2,0-0.4,0-0.5c0-0.4-0.1-0.7-0.4-1s-0.6-0.4-1-0.4
		c-0.9,0-1.3,0.5-1.4,1.6l0,0.4l0,0.4c0.1,1.1,0.5,1.6,1.4,1.6C153.4,219.5,153.7,219.3,154,219.1L154,219.1z M158.3,220.6
		c-0.1-0.1-0.1-0.1-0.1-0.2v-4.7h-1c-0.1,0-0.1,0-0.2-0.1s-0.1-0.1-0.1-0.2v-0.7c0-0.1,0-0.1,0.1-0.2s0.1-0.1,0.2-0.1h1V214
		c0-0.7,0.2-1.3,0.6-1.6s1-0.5,1.8-0.5h2.5c0.1,0,0.2,0,0.2,0.1s0.1,0.1,0.1,0.2v0.7c0,0.1,0,0.1-0.1,0.2s-0.1,0.1-0.2,0.1h-2.4
		c-0.3,0-0.5,0.1-0.7,0.2c-0.1,0.2-0.2,0.4-0.2,0.7v0.4h3.3c0.1,0,0.2,0,0.2,0.1s0.1,0.1,0.1,0.2v5.7c0,0.1,0,0.1-0.1,0.2
		s-0.1,0.1-0.2,0.1h-1c-0.1,0-0.1,0-0.2-0.1s-0.1-0.1-0.1-0.2v-4.7h-2v4.7c0,0.1,0,0.1-0.1,0.2s-0.1,0.1-0.2,0.1h-1
		C158.4,220.7,158.4,220.6,158.3,220.6L158.3,220.6z M165,220.6c-0.1-0.1-0.1-0.1-0.1-0.2v-5.7c0-0.1,0-0.2,0.1-0.2s0.1-0.1,0.2-0.1
		h1c0.1,0,0.2,0,0.2,0.1s0.1,0.1,0.1,0.2v0.5c0.4-0.5,1-0.8,1.7-0.8h0.5c0.1,0,0.2,0,0.2,0.1s0.1,0.1,0.1,0.2v0.9
		c0,0.1,0,0.1-0.1,0.2s-0.1,0.1-0.2,0.1h-0.9c-0.4,0-0.7,0.1-0.9,0.3s-0.3,0.5-0.3,0.9v3.3c0,0.1,0,0.1-0.1,0.2s-0.1,0.1-0.2,0.1
		h-1.1C165.1,220.7,165.1,220.6,165,220.6L165,220.6z M170,220.6c-0.1-0.1-0.1-0.1-0.1-0.2v-5.7c0-0.1,0-0.2,0.1-0.2
		s0.1-0.1,0.2-0.1h0.9c0.1,0,0.2,0,0.2,0.1s0.1,0.1,0.1,0.2v0.4c0.4-0.5,1-0.8,1.7-0.8c0.9,0,1.5,0.4,1.9,1.1
		c0.2-0.3,0.5-0.6,0.8-0.8c0.4-0.2,0.7-0.3,1.1-0.3c0.7,0,1.2,0.2,1.6,0.7s0.6,1.1,0.6,2v3.4c0,0.1,0,0.1-0.1,0.2s-0.1,0.1-0.2,0.1
		h-1c-0.1,0-0.1,0-0.2-0.1s-0.1-0.1-0.1-0.2V217c0-0.5-0.1-0.9-0.3-1.1c-0.2-0.2-0.5-0.3-0.8-0.3c-0.3,0-0.6,0.1-0.8,0.3
		s-0.3,0.6-0.3,1.1v3.3c0,0.1,0,0.1-0.1,0.2s-0.1,0.1-0.2,0.1h-1c-0.1,0-0.1,0-0.2-0.1s-0.1-0.1-0.1-0.2V217c0-0.5-0.1-0.9-0.3-1.1
		s-0.5-0.3-0.8-0.3c-0.3,0-0.6,0.1-0.8,0.3s-0.3,0.6-0.3,1.1v3.3c0,0.1,0,0.1-0.1,0.2s-0.1,0.1-0.2,0.1h-1
		C170.2,220.7,170.1,220.6,170,220.6L170,220.6z M181.7,220.5c-0.4-0.2-0.7-0.4-0.9-0.6c-0.2-0.2-0.3-0.5-0.3-0.6
		c0-0.1,0-0.1,0.1-0.2s0.1-0.1,0.2-0.1h1c0.1,0,0.1,0,0.2,0.1c0,0,0.1,0.1,0.3,0.2s0.3,0.2,0.5,0.3c0.2,0.1,0.4,0.1,0.6,0.1
		c0.3,0,0.6-0.1,0.8-0.2c0.2-0.1,0.3-0.3,0.3-0.5c0-0.2,0-0.3-0.1-0.4s-0.3-0.2-0.5-0.3s-0.6-0.2-1.1-0.3c-0.7-0.1-1.2-0.4-1.5-0.7
		s-0.5-0.7-0.5-1.2c0-0.3,0.1-0.6,0.3-0.9c0.2-0.3,0.5-0.5,0.9-0.7c0.4-0.2,0.8-0.3,1.4-0.3c0.5,0,1,0.1,1.4,0.3
		c0.4,0.2,0.7,0.4,0.9,0.6c0.2,0.2,0.3,0.5,0.3,0.6c0,0.1,0,0.1-0.1,0.2s-0.1,0.1-0.2,0.1h-0.9c-0.1,0-0.2,0-0.2-0.1
		c-0.1,0-0.1-0.1-0.3-0.2c-0.1-0.1-0.3-0.2-0.4-0.3c-0.2-0.1-0.3-0.1-0.6-0.1c-0.3,0-0.5,0.1-0.7,0.2s-0.2,0.3-0.2,0.5
		c0,0.1,0,0.3,0.1,0.4c0.1,0.1,0.2,0.2,0.5,0.3c0.2,0.1,0.6,0.2,1,0.3c1.4,0.3,2.2,0.9,2.2,1.9c0,0.6-0.2,1-0.7,1.4
		s-1.2,0.5-2.1,0.5C182.6,220.8,182.1,220.7,181.7,220.5L181.7,220.5z M187.2,220.6c-0.1-0.1-0.1-0.1-0.1-0.2v-1.2
		c0-0.1,0-0.1,0.1-0.2s0.1-0.1,0.2-0.1h1.2c0.1,0,0.1,0,0.2,0.1s0.1,0.1,0.1,0.2v1.2c0,0.1,0,0.1-0.1,0.2s-0.1,0.1-0.2,0.1h-1.2
		C187.3,220.7,187.3,220.6,187.2,220.6L187.2,220.6z M190.9,220.1c-0.5-0.5-0.8-1.2-0.8-2l0-0.5l0-0.5c0-0.9,0.3-1.5,0.8-2
		s1.2-0.7,2.1-0.7c0.6,0,1.2,0.1,1.6,0.3s0.8,0.5,1,0.8s0.3,0.6,0.3,0.9c0,0.1,0,0.1-0.1,0.2s-0.1,0.1-0.2,0.1h-1.1
		c-0.1,0-0.2,0-0.2-0.1c0,0-0.1-0.1-0.1-0.2c-0.1-0.3-0.3-0.5-0.5-0.7s-0.4-0.2-0.8-0.2c-0.4,0-0.7,0.1-1,0.4s-0.4,0.6-0.4,1.2
		l0,0.4l0,0.4c0,1,0.5,1.6,1.3,1.6c0.3,0,0.6-0.1,0.8-0.2s0.3-0.4,0.5-0.7c0-0.1,0.1-0.2,0.1-0.2c0,0,0.1-0.1,0.2-0.1h1.1
		c0.1,0,0.1,0,0.2,0.1c0.1,0.1,0.1,0.1,0.1,0.2c0,0.3-0.1,0.6-0.3,0.9c-0.2,0.3-0.5,0.6-1,0.8s-1,0.3-1.6,0.3
		C192.1,220.8,191.4,220.5,190.9,220.1L190.9,220.1z M197.7,220.1c-0.5-0.5-0.8-1.1-0.8-2l0-0.5l0-0.5c0-0.8,0.3-1.5,0.8-2
		c0.5-0.5,1.2-0.7,2.2-0.7c0.9,0,1.6,0.2,2.2,0.7c0.5,0.5,0.8,1.1,0.8,2c0,0.1,0,0.3,0,0.5s0,0.4,0,0.5c0,0.8-0.3,1.5-0.8,2
		c-0.5,0.5-1.2,0.7-2.2,0.7C199,220.8,198.2,220.6,197.7,220.1L197.7,220.1z M200.9,219.2c0.2-0.3,0.4-0.7,0.4-1.2
		c0-0.1,0-0.2,0-0.5c0-0.2,0-0.4,0-0.5c0-0.5-0.1-0.9-0.4-1.2s-0.6-0.4-1-0.4c-0.4,0-0.8,0.1-1,0.4c-0.2,0.3-0.4,0.7-0.4,1.2l0,0.5
		l0,0.5c0,0.5,0.1,0.9,0.4,1.2s0.6,0.4,1,0.4S200.7,219.4,200.9,219.2z"/>
	<g>
		<path class="st8" d="M222,54.6l2.1,4.3l4.7,0.7l-3.4,3.3l0.8,4.7l-4.2-2.2l-4.2,2.2l0.8-4.7l-3.4-3.3l4.7-0.7L222,54.6z
			 M105.2,54.6l-2.1,4.3l-4.7,0.7l3.4,3.3l-0.8,4.7l4.2-2.2l4.2,2.2l-0.8-4.7l3.4-3.3l-4.7-0.7L105.2,54.6z M203.7,33.1l3.5,7.2
			l7.9,1.1l-5.7,5.6l1.4,7.9l-7.1-3.7l-7.1,3.7l1.4-7.9l-5.7-5.6l7.9-1.1L203.7,33.1z M123.5,33.1l-3.5,7.2l-7.9,1.1l5.7,5.6
			l-1.4,7.9l7.1-3.7l7.1,3.7l-1.4-7.9l5.7-5.6l-7.9-1.1L123.5,33.1z M163.6,17l5.9,11.9l13.2,1.9l-9.5,9.3l2.3,13.1L163.6,47
			l-11.8,6.2l2.3-13.1l-9.5-9.3l13.2-1.9L163.6,17z"/>
		<path class="st14" d="M163.6,17l5.9,11.9l13.2,1.9l-9.5,9.3l2.3,13.1L163.6,47l-11.8,6.2l2.3-13.1l-9.5-9.3l13.2-1.9L163.6,17z"/>
		<path class="st8" d="M203.7,33.1l3.5,7.2l7.9,1.1l-5.7,5.6l1.4,7.9l-7.1-3.7l-7.1,3.7l1.4-7.9l-5.7-5.6l7.9-1.1L203.7,33.1z"/>
		<path class="st6" d="M222,54.6l2.1,4.3l4.7,0.7l-3.4,3.3l0.8,4.7l-4.2-2.2l-4.2,2.2l0.8-4.7l-3.4-3.3l4.7-0.7L222,54.6z"/>
		<path class="st8" d="M123.5,33.1l-3.5,7.2l-7.9,1.1l5.7,5.6l-1.4,7.9l7.1-3.7l7.1,3.7l-1.4-7.9l5.7-5.6l-7.9-1.1L123.5,33.1z"/>
		<path class="st6" d="M105.2,54.6l-2.1,4.3l-4.7,0.7l3.4,3.3l-0.8,4.7l4.2-2.2l4.2,2.2l-0.8-4.7l3.4-3.3l-4.7-0.7L105.2,54.6z"/>
	</g>
	<g>
		<path class="st15" d="M0,165.3h36.4V221H0l11.7-26.1L0,165.3z M323.6,165.3h-36.4V221h36.4l-11.7-26.1L323.6,165.3z"/>
		<path class="st16" d="M18.4,146.3l18.4,19.8V221l-18.4-18.4L18.4,146.3z M305.6,146.3l-18.4,19v55.6l18.4-18.3V146.3z"/>
		<path class="st11" d="M18,202.2h287.3l0-56.3H18V202.2z"/>
	</g>
	<path class="st3" d="M100.5,169.4H98v-9.9h-3.5v-2.1h9.5v2.1h-3.5V169.4z M110.8,157.2c3.5,0,5.8,2.4,5.8,6.2
		c0,3.8-2.2,6.2-5.8,6.2c-3.6,0-5.8-2.4-5.8-6.2C105,159.6,107.2,157.2,110.8,157.2z M110.8,159.3c-2,0-3.2,1.6-3.2,4.1
		c0,2.5,1.3,4.1,3.2,4.1c2,0,3.2-1.6,3.2-4.1C114,160.9,112.7,159.3,110.8,159.3z M118.1,157.4h5c2.5,0,4.2,1.6,4.2,4.1
		c0,2.5-1.8,4.1-4.3,4.1h-2.4v3.8h-2.5V157.4z M120.7,159.4v4.3h1.8c1.4,0,2.3-0.8,2.3-2.1c0-1.4-0.8-2.1-2.3-2.1H120.7z
		 M145.1,157.4v12h-2.2v-8.1h-0.1l-3.3,8H138l-3.3-8h-0.1v8.1h-2.2v-12h2.9l3.4,8.5h0.1l3.4-8.5H145.1z M152.5,157.2
		c3.5,0,5.8,2.4,5.8,6.2c0,3.8-2.2,6.2-5.8,6.2c-3.6,0-5.8-2.4-5.8-6.2C146.7,159.6,149,157.2,152.5,157.2z M152.5,159.3
		c-2,0-3.2,1.6-3.2,4.1c0,2.5,1.3,4.1,3.2,4.1c2,0,3.2-1.6,3.2-4.1C155.7,160.9,154.5,159.3,152.5,159.3z M165.3,169.4h-5.4v-12h5.3
		c2.2,0,3.7,1.2,3.7,3c0,1.3-1,2.4-2.2,2.6v0.1c1.6,0.1,2.8,1.3,2.8,2.9C169.4,168.1,167.8,169.4,165.3,169.4z M162.4,159.3v3.1h1.9
		c1.3,0,2.1-0.6,2.1-1.6c0-1-0.7-1.5-1.8-1.5H162.4z M162.4,167.5h2.2c1.4,0,2.2-0.6,2.2-1.8c0-1.1-0.8-1.7-2.3-1.7h-2.2V167.5z
		 M173.3,169.4h-2.5v-12h2.5V169.4z M183.1,167.3v2.1h-7.7v-12h2.5v9.9H183.1z M192.5,167.3v2.1h-7.9v-12h7.9v2.1h-5.4v2.9h5.1v1.9
		h-5.1v3H192.5z M205.8,169.4l-0.9-2.9h-4.2l-0.9,2.9h-2.6l4.2-12h2.9l4.2,12H205.8z M202.8,159.7l-1.5,4.9h3.1L202.8,159.7
		L202.8,159.7z M209.7,157.4h5c2.5,0,4.2,1.6,4.2,4.1c0,2.5-1.8,4.1-4.3,4.1h-2.4v3.8h-2.5V157.4z M212.2,159.4v4.3h1.8
		c1.4,0,2.3-0.8,2.3-2.1c0-1.4-0.8-2.1-2.3-2.1H212.2z M220.3,157.4h5c2.5,0,4.2,1.6,4.2,4.1c0,2.5-1.8,4.1-4.3,4.1h-2.4v3.8h-2.5
		V157.4z M222.8,159.4v4.3h1.8c1.4,0,2.3-0.8,2.3-2.1c0-1.4-0.8-2.1-2.3-2.1H222.8z M57.2,177.4h4.6c3.6,0,5.7,2.1,5.7,5.9
		s-2.1,6-5.7,6h-4.6V177.4z M59.7,179.5v7.8h1.8c2.2,0,3.5-1.4,3.5-4c0-2.5-1.2-3.9-3.5-3.9H59.7z M77.1,187.3v2.1h-7.9v-12h7.9v2.1
		h-5.4v2.9h5.1v1.9h-5.1v3H77.1z M85.2,189.4h-3l-4-12H81l2.7,9.4h0.1l2.7-9.4h2.7L85.2,189.4z M98.4,187.3v2.1h-7.9v-12h7.9v2.1H93
		v2.9h5.1v1.9H93v3H98.4z M107.9,187.3v2.1h-7.7v-12h2.5v9.9H107.9z M114.8,177.2c3.5,0,5.8,2.4,5.8,6.2c0,3.8-2.2,6.2-5.8,6.2
		c-3.6,0-5.8-2.4-5.8-6.2C109.1,179.6,111.3,177.2,114.8,177.2z M114.8,179.3c-2,0-3.2,1.6-3.2,4.1c0,2.5,1.3,4.1,3.2,4.1
		c2,0,3.2-1.6,3.2-4.1C118,180.9,116.8,179.3,114.8,179.3z M122.2,177.4h5c2.5,0,4.2,1.6,4.2,4.1c0,2.5-1.8,4.1-4.3,4.1h-2.4v3.8
		h-2.5V177.4z M124.7,179.4v4.3h1.8c1.4,0,2.3-0.8,2.3-2.1c0-1.4-0.8-2.1-2.3-2.1H124.7z M145.5,177.4v12h-2.2v-8.1h-0.1l-3.3,8
		h-1.6l-3.3-8h-0.1v8.1h-2.2v-12h2.9l3.4,8.5h0.1l3.4-8.5H145.5z M155.5,187.3v2.1h-7.9v-12h7.9v2.1H150v2.9h5.1v1.9H150v3H155.5z
		 M159.7,189.4h-2.4v-12h2.1l5.6,7.8h0.1v-7.8h2.4v12h-2.1l-5.6-7.8h-0.1V189.4z M174.8,189.4h-2.5v-9.9h-3.5v-2.1h9.5v2.1h-3.5
		V189.4z M188.7,189.6c-3.5,0-5.7-2.3-5.7-6.2c0-3.9,2.2-6.2,5.7-6.2c2.9,0,5.1,1.8,5.3,4.5h-2.4c-0.2-1.5-1.4-2.4-2.8-2.4
		c-1.9,0-3.1,1.6-3.1,4.1c0,2.6,1.2,4.1,3.1,4.1c1.5,0,2.6-0.9,2.8-2.3h2.4C193.7,187.9,191.6,189.6,188.7,189.6z M200.9,177.2
		c3.5,0,5.8,2.4,5.8,6.2c0,3.8-2.2,6.2-5.8,6.2c-3.6,0-5.8-2.4-5.8-6.2C195.1,179.6,197.3,177.2,200.9,177.2z M200.9,179.3
		c-2,0-3.2,1.6-3.2,4.1c0,2.5,1.3,4.1,3.2,4.1c2,0,3.2-1.6,3.2-4.1C204.1,180.9,202.8,179.3,200.9,179.3z M221,177.4v12h-2.2v-8.1
		h-0.1l-3.3,8h-1.6l-3.3-8h-0.1v8.1h-2.2v-12h2.9l3.4,8.5h0.1l3.4-8.5H221z M222.9,177.4h5c2.5,0,4.2,1.6,4.2,4.1
		c0,2.5-1.8,4.1-4.3,4.1h-2.4v3.8h-2.5V177.4z M225.5,179.4v4.3h1.8c1.4,0,2.3-0.8,2.3-2.1c0-1.4-0.8-2.1-2.3-2.1H225.5z
		 M241.4,189.4l-0.9-2.9h-4.2l-0.9,2.9h-2.6l4.2-12h2.9l4.2,12H241.4z M238.4,179.7l-1.5,4.9h3.1L238.4,179.7L238.4,179.7z
		 M247.7,189.4h-2.4v-12h2.1l5.6,7.8h0.1v-7.8h2.4v12h-2.1l-5.6-7.8h-0.1V189.4z M263.4,189.4h-2.5v-4.5l-4.2-7.5h2.7l2.7,5.1h0.1
		l2.7-5.1h2.7l-4.2,7.5V189.4z"/>
</g>
</svg>
