<svg width="902" height="118" viewBox="0 0 902 118" fill="none" xmlns="http://www.w3.org/2000/svg">
<path d="M12.5 25.0002L103.8 67.8133C157.314 92.9072 219.846 89.4838 270.301 58.6982L276.403 54.9746C331.327 21.462 400.724 22.9459 454.165 58.7755V58.7755C507.949 94.8356 577.858 96.0881 632.9 61.9778L639.623 57.8112C689.856 26.6813 752.301 22.6407 806.126 47.0375L896.5 88.0003" stroke="#C9D1E3" stroke-dasharray="6 6"/>
<circle cx="724" cy="30.0001" r="15" fill="#ECF1FA"/>
<path fill-rule="evenodd" clip-rule="evenodd" d="M726.562 30.0001L722 25.2652L723.219 24.0001L729 30.0001L723.219 36.0001L722 34.735L726.562 30.0001Z" fill="#3095F2"/>
<circle cx="366" cy="30.0001" r="15" fill="#ECF1FA"/>
<path fill-rule="evenodd" clip-rule="evenodd" d="M368.562 30.0001L364 25.2652L365.219 24.0001L371 30.0001L365.219 36.0001L364 34.735L368.562 30.0001Z" fill="#3095F2"/>
<circle cx="189" cy="84.0001" r="15" fill="#ECF1FA"/>
<path fill-rule="evenodd" clip-rule="evenodd" d="M191.562 84.0001L187 79.2652L188.219 78.0001L194 84.0001L188.219 90.0001L187 88.735L191.562 84.0001Z" fill="#3095F2"/>
<circle cx="15" cy="27.0001" r="15" fill="#ECF1FA"/>
<path fill-rule="evenodd" clip-rule="evenodd" d="M17.5621 27.0001L13 22.2652L14.219 21.0001L20 27.0001L14.219 33.0001L13 31.735L17.5621 27.0001Z" fill="#3095F2"/>
<circle cx="543" cy="84.0001" r="15" fill="#ECF1FA"/>
<path fill-rule="evenodd" clip-rule="evenodd" d="M545.562 84.0001L541 79.2652L542.219 78.0001L548 84.0001L542.219 90.0001L541 88.735L545.562 84.0001Z" fill="#3095F2"/>
<circle cx="892" cy="85.0001" r="10" fill="#ECF1FA"/>
<circle cx="892" cy="85.0001" r="3" fill="#3095F2"/>
</svg>
