<svg width="96" height="96" viewBox="0 0 96 96" fill="none" xmlns="http://www.w3.org/2000/svg">
<rect width="96" height="96" rx="5" fill="#3095F2"/>
<path fill-rule="evenodd" clip-rule="evenodd" d="M68.9145 19.3097L72.5712 22.523C73.092 22.9808 73.1474 23.7813 72.6949 24.3076L71.1912 26.0561C70.9649 26.3192 70.6536 26.4648 70.334 26.4874C70.186 26.4979 70.0365 26.4809 69.8926 26.4381L69.2936 27.1347C68.896 27.5969 68.3441 27.8751 67.7395 27.9178C67.1351 27.9606 66.5502 27.7627 66.0928 27.361L65.0767 26.4681C64.6195 26.0662 64.3443 25.5083 64.3021 24.8973C64.2598 24.2861 64.4555 23.6949 64.8529 23.2326L65.452 22.536C65.2563 22.0992 65.3144 21.5682 65.6452 21.1833L67.1492 19.4345C67.6017 18.9082 68.3936 18.852 68.9145 19.3097ZM67.1079 26.1806C67.4079 26.4445 67.8644 26.4124 68.1256 26.1087L68.6495 25.4993L66.5445 23.6497L66.0206 24.259C65.7596 24.5625 65.7915 25.0239 66.0918 25.2877L67.1079 26.1806ZM67.0073 21.9836L70.2174 24.8044L71.3328 23.5074L68.1227 20.6866L67.0073 21.9836ZM58.1406 24.8077C57.7152 24.8022 57.3628 25.1481 57.3575 25.5801L57.3138 29.2094C57.3085 29.6414 57.6507 29.9958 58.0779 30.001C58.0996 30.0014 58.1209 30.0006 58.1422 29.9991C58.5397 29.971 58.856 29.6385 58.8609 29.2285L58.9047 25.5992C58.9099 25.1673 58.5678 24.8129 58.1406 24.8077ZM63.6416 27.9844C63.922 27.6585 64.4106 27.624 64.7332 27.9072C65.0556 28.1907 65.0897 28.6845 64.8095 29.0107L62.2726 31.9607C62.1324 32.1236 61.9401 32.2137 61.7426 32.2277C61.5452 32.2417 61.3423 32.1795 61.1811 32.0379C60.8586 31.7544 60.8244 31.2605 61.1047 30.9344L63.6416 27.9844ZM67.8062 33.4217C68.2281 33.3551 68.6233 33.6495 68.688 34.0766C68.7527 34.5035 68.4626 34.9026 68.0403 34.9679L64.4909 35.5168C64.4695 35.52 64.4482 35.5224 64.427 35.5239C64.0295 35.552 63.6705 35.2672 63.6092 34.8619C63.5445 34.435 63.8345 34.0359 64.2569 33.9706L67.8062 33.4217ZM58.0756 31.9149L61.7324 35.1284C62.2529 35.5862 62.3083 36.3865 61.8559 36.9129L60.352 38.6616C60.1257 38.9247 59.8145 39.0704 59.4949 39.093C59.4264 39.0978 59.3575 39.0959 59.2889 39.0893L58.8259 39.6279C56.3089 42.5547 54.3027 45.8096 52.8317 49.3398L52.8275 49.3518L52.8234 49.3639C52.8224 49.3668 52.8213 49.3696 52.8202 49.3725C52.8193 49.3751 52.8183 49.3777 52.8172 49.3802C52.8047 49.41 52.7913 49.4391 52.7779 49.4681L52.7778 49.4683L52.7653 49.4954C52.2727 50.6933 51.8415 51.9227 51.4731 53.1818C50.7286 55.726 49.478 58.0315 47.756 60.0338L41.3726 67.4567L40.5166 68.452L36.263 73.3984C35.4558 74.3369 34.3353 74.9017 33.108 74.9884C31.8807 75.0752 30.6934 74.6736 29.7649 73.8576L24.5841 69.3053C22.6673 67.621 22.4635 64.6742 24.1297 62.7366L35.6228 49.372C37.3448 47.3695 39.4291 45.7969 41.818 44.6975C44.6286 43.4041 48.6995 40.5643 51.1684 38.5285C51.7106 37.9745 53.5678 36.0378 54.0725 35.4509L54.5356 34.9124C54.4454 34.5286 54.5318 34.1082 54.8066 33.7884L56.3103 32.0399C56.763 31.5136 57.5549 31.4576 58.0756 31.9149ZM52.5269 39.3627C52.4824 39.4392 52.4242 39.5094 52.3527 39.5692C50.8766 40.8038 47.7959 43.1706 46.154 44.162L46.1517 44.1636L46.1506 44.1643L46.1481 44.166C45.6014 44.4958 45.2557 45.0505 45.1996 45.6879C45.1443 46.317 45.3834 46.9159 45.8557 47.331L48.3315 49.5064C48.8039 49.9217 49.4249 50.0777 50.0322 49.9346C50.609 49.7991 51.0794 49.4201 51.3401 48.8862C52.8801 45.1441 54.9962 41.6974 57.6582 38.6017L57.9675 38.2421L55.5496 36.1175L55.2403 36.4771C54.7776 37.0151 53.2693 38.5955 52.5269 39.3627ZM40.2116 66.4225L46.5883 59.0074C48.1639 57.1753 49.3081 55.066 49.9894 52.738C50.1154 52.3073 50.2492 51.8803 50.3892 51.4563L50.3824 51.4582C50.1968 51.5018 50.0104 51.53 49.8249 51.5432C48.9142 51.6075 48.0233 51.3084 47.3162 50.6869L44.8405 48.5115C43.9893 47.7635 43.5584 46.6838 43.6583 45.5494L43.6587 45.5449L43.6591 45.5419C43.2626 45.7418 42.8627 45.9353 42.4591 46.121C40.2734 47.1268 38.3663 48.5659 36.7906 50.3981L25.2974 63.7629C24.7614 64.3861 24.4976 65.1831 24.5546 66.007C24.6116 66.8309 24.9825 67.5829 25.5992 68.1248L30.7799 72.6772C31.3966 73.219 32.185 73.4858 33.0001 73.4281C33.8152 73.3705 34.5592 72.9955 35.0951 72.3721L40.2047 66.4304L40.2116 66.4225ZM56.1685 34.5888L59.3787 37.4096L60.494 36.1126L57.2839 33.2918L56.1685 34.5888ZM41.5433 54.875C39.2451 52.8557 35.3066 53.6187 32.7636 56.5757C30.2206 59.533 30.0214 63.5817 32.3195 65.601C33.2685 66.435 34.5059 66.8226 35.8674 66.7264C36.1473 66.7066 36.4326 66.6664 36.7215 66.6053C38.338 66.264 39.8927 65.3033 41.0991 63.9005C43.6422 60.9432 43.8414 56.8944 41.5433 54.875ZM39.9313 62.8743C38.9452 64.021 37.6929 64.8023 36.4051 65.0743C35.1952 65.3301 34.1049 65.0976 33.3345 64.4206C31.6803 62.967 31.9481 59.9082 33.9313 57.602C35.1285 56.2099 36.6811 55.4054 38.0879 55.306C39.0116 55.2407 39.8725 55.4795 40.5281 56.0556C42.1823 57.5092 41.9146 60.568 39.9313 62.8743Z" fill="white"/>
</svg>
