<svg xmlns="http://www.w3.org/2000/svg" width="96" height="96" fill="none" xmlns:v="https://vecta.io/nano"><rect width="96" height="96" rx="5" fill="#f1f7fc"/><path d="M55.367 52.074l-6.75-9.75A.75.75 0 0 0 48 42a.75.75 0 0 0-.617.323l-6.75 9.75a.75.75 0 0 0-.095.664l1.921 5.763H42a.75.75 0 0 0-.75.75v2.25a.75.75 0 0 0 .75.75h.75v8.25a.75.75 0 0 0 .75.75h9a.75.75 0 0 0 .75-.75v-8.25H54a.75.75 0 0 0 .75-.75v-2.25a.75.75 0 0 0-.75-.75h-.459l1.921-5.763a.75.75 0 0 0-.095-.664zM48 51a.75.75 0 0 1 .693.463.75.75 0 0 1-.163.817.75.75 0 0 1-.817.163.75.75 0 0 1-.463-.693A.75.75 0 0 1 48 51zm3.75 18.75h-7.5v-7.5h7.5v7.5zm1.5-9h-10.5V60h10.5v.75zm-1.291-2.25h-7.918l-1.961-5.881 5.17-7.468V49.5a.8.8 0 0 0 .011.126 2.25 2.25 0 0 0-1.48 2.5A2.25 2.25 0 0 0 48 54.001a2.25 2.25 0 0 0 2.219-1.875 2.25 2.25 0 0 0-1.48-2.5.79.79 0 0 0 .011-.126v-4.349l5.17 7.468-1.961 5.881z" fill="#0d2842"/><path d="M70.5 33h-3a.75.75 0 0 0-.75.75v.757c-.031-.004-.062-.006-.094-.007H50.25v-.75a.75.75 0 0 0-.75-.75h-.75v-3.75h.75a.75.75 0 0 0 .75-.75v-3a.75.75 0 0 0-.75-.75h-3a.75.75 0 0 0-.75.75v3a.75.75 0 0 0 .75.75h.75V33h-.75a.75.75 0 0 0-.75.75v.75h-16.5v-.75a.75.75 0 0 0-.75-.75h-3a.75.75 0 0 0-.75.75v3a.75.75 0 0 0 .75.75h3a.75.75 0 0 0 .75-.75V36h12.399a11.73 11.73 0 0 0-2.624 2.377C37.103 40.708 36 43.669 36 46.5h-.75a.75.75 0 0 0-.75.75v3a.75.75 0 0 0 .75.75h3a.75.75 0 0 0 .75-.75v-3a.75.75 0 0 0-.75-.75h-.75c0-5.561 4.279-9.948 8.25-10.451v.701a.75.75 0 0 0 .75.75h3a.75.75 0 0 0 .75-.75v-.704c2.031.241 3.98 1.458 5.553 3.487 1.531 1.974 2.503 4.529 2.671 6.967h-.724a.75.75 0 0 0-.75.75v3a.75.75 0 0 0 .75.75h3a.75.75 0 0 0 .75-.75v-3a.75.75 0 0 0-.75-.75h-.773c-.164-2.785-1.232-5.622-2.988-7.886A11.85 11.85 0 0 0 54.233 36h12.424c.031 0 .063-.002.094-.007v.757a.75.75 0 0 0 .75.75h3a.75.75 0 0 0 .75-.75v-3a.75.75 0 0 0-.75-.75zm-42.75 3h-1.5v-1.5h1.5V36zm9.75 13.5H36V48h1.5v1.5zm9.75-23.25h1.5v1.5h-1.5v-1.5zm1.5 9.75h-1.5v-1.5h1.5V36zm9.75 12H60v1.5h-1.5V48zm11.25-12h-1.5v-1.5h1.5V36z" fill="#3095f2"/></svg>