<svg xmlns="http://www.w3.org/2000/svg" width="96" height="96" fill="none" xmlns:v="https://vecta.io/nano"><rect width="96" height="96" rx="5" fill="#f1f7fc"/><path d="M31.794 63.193v-9.709l3.335 3.335 1.432-1.432-5.064-5.065c-.094-.094-.206-.169-.329-.22s-.255-.077-.388-.077-.265.026-.388.077-.235.126-.329.22l-5.065 5.065 1.433 1.432 3.335-3.335v9.709c.001.806.321 1.578.891 2.148a3.04 3.04 0 0 0 2.148.891h13.168v-2.026H32.807c-.269 0-.526-.107-.716-.297s-.297-.447-.297-.716z" fill="#3095f2"/><path d="M64.209 63.194c0 .269-.107.526-.297.716s-.447.297-.716.297h-9.71l3.336-3.335-1.432-1.433-5.065 5.065c-.094.094-.169.206-.22.329s-.077.255-.077.388.026.265.077.388.126.234.22.329L55.389 71l1.432-1.433-3.336-3.335h9.71c.806-.001 1.578-.321 2.148-.891s.89-1.342.891-2.148V50.026h-2.026v13.168z" fill="#0d2842"/><path d="M66.234 42.516v-9.709a3.04 3.04 0 0 0-3.039-3.039H50.028v2.026h13.168c.269 0 .526.107.716.297s.297.447.297.716v9.709l-3.335-3.335-1.432 1.433 5.064 5.065c.094.094.206.169.329.219s.255.077.388.077.265-.026.388-.077.235-.125.329-.219l5.064-5.065-1.433-1.433-3.335 3.335z" fill="#3095f2"/><path d="M40.611 25l-1.433 1.433 3.336 3.335h-9.71a3.04 3.04 0 0 0-3.039 3.039v13.168h2.026V32.807c0-.269.107-.526.297-.716s.447-.297.716-.297h9.71l-3.336 3.335 1.433 1.433 5.064-5.065a1.01 1.01 0 0 0 .22-.329c.051-.123.077-.255.077-.388s-.026-.265-.077-.388-.125-.235-.22-.329L40.611 25z" fill="#0d2842"/></svg>