<svg xmlns="http://www.w3.org/2000/svg" width="96" height="96" fill="none" xmlns:v="https://vecta.io/nano"><rect width="96" height="96" rx="5" fill="#f1f7fc"/><g clip-path="url(#A)"><path d="M57.416 24.929L57.368 24l-.925.099c-.091.01-9.03 1.087-9.643 11.081l-.062 1.001 1.001-.068c.102-.007 10.227-.815 9.677-11.184zm-1.745 1.116c-.168 6.023-4.854 7.698-7.005 8.15.819-5.853 5.064-7.636 7.005-8.15z" fill="#3095f2"/><path d="M66.034 57.045l-.563-.182c-3.406-1.101-5.693-4.221-5.693-7.763 0-3.151 1.782-5.97 4.652-7.356l.856-.413-.477-.822c-.204-.352-2.115-3.473-6.151-4.506-3.201-.819-6.8-.094-10.701 2.155-1.652-1.002-7.137-3.891-11.501-.995-.854.472-9.91 5.897-5.197 20.534.138.328 3.424 8.027 7.313 10.91 1.049 1.002 3.732 2.255 6.798.165.531-.219 4.085-1.587 6.34.015.832.57 2.286 1.216 3.821 1.216a4.58 4.58 0 0 0 3.399-1.428c.477-.413 4.838-4.305 7.105-10.471l.066-.18-.066-.878zM57.752 67.26l-.068.064c-1.932 2.028-4.86.088-4.968.016-1.152-.819-2.486-1.086-3.738-1.086-2.272 0-4.269.88-4.397.937l-.144.081c-2.659 1.856-4.48.223-4.672.037l-.104-.089c-3.517-2.565-6.749-10.135-6.754-10.138-4.411-13.712 4.039-18.197 4.399-18.379l.097-.057c4.093-2.748 9.977 1.23 10.035 1.269l.47.322.486-.293c3.664-2.215 6.971-2.968 9.827-2.236 2.327.595 3.81 2.05 4.536 2.944a9.85 9.85 0 0 0-4.74 8.448c0 4.013 2.409 7.578 6.079 9.129-2.259 5.515-6.3 8.995-6.343 9.032z" fill="#0d2842"/></g><defs><clipPath id="A"><path fill="#fff" transform="translate(25 24)" d="M0 0h46v46H0z"/></clipPath></defs></svg>