<svg xmlns="http://www.w3.org/2000/svg" xmlns:xlink="http://www.w3.org/1999/xlink" width="96" height="96" fill="none" xmlns:v="https://vecta.io/nano"><rect width="96" height="96" rx="5" fill="#f1f7fc"/><g clip-path="url(#A)"><path d="M57.127 30.121c-.526-.526-1.192-1.092-2.006-1.617l1.163-2.448c.154-.384 0-.844-.383-.997s-.844 0-.997.384l-1.103 2.323c-1.513-.726-3.407-1.249-5.723-1.249-2.343 0-4.318.476-5.955 1.245l-1.102-2.319c-.153-.383-.614-.537-.997-.383s-.537.614-.384.997l1.157 2.436c-3.296 2.105-4.872 5.466-5.068 7.918l-.077.844h24.696l-.077-.844c-.153-1.611-1.074-4.142-3.145-6.289zM37.416 35.72c.69-3.298 3.912-7.67 10.738-7.67 2.168 0 3.964.502 5.424 1.28a.67.67 0 0 0 .252.177c.046.046.12.064.189.072 2.747 1.643 4.2 4.271 4.643 6.141H37.416h0z" fill="#3095f2"/><g fill="#0d2842"><path d="M30.948 38.788c-1.982 0-3.538 1.687-3.538 3.835V53.36c0 2.148 1.557 3.835 3.538 3.835s3.539-1.687 3.539-3.835V42.622c0-2.148-1.557-3.835-3.539-3.835zm2.123 14.572c0 1.304-.92 2.301-2.123 2.301s-2.123-.997-2.123-2.301V42.622c0-1.304.92-2.301 2.123-2.301s2.123.997 2.123 2.301V53.36zm32.092-14.572c-1.981 0-3.538 1.687-3.538 3.835V53.36c0 2.148 1.557 3.835 3.538 3.835s3.538-1.687 3.538-3.835V42.622c0-2.148-1.557-3.835-3.538-3.835zm2.123 14.572c0 1.304-.92 2.301-2.123 2.301s-2.123-.997-2.123-2.301V42.622c0-1.304.92-2.301 2.123-2.301s2.123.997 2.123 2.301V53.36zM35.73 61.03h3.068v6.903A3.08 3.08 0 0 0 41.866 71a3.08 3.08 0 0 0 3.068-3.068V61.03h6.136v6.903A3.08 3.08 0 0 0 54.137 71a3.08 3.08 0 0 0 3.068-3.068V61.03h3.068V38.788H35.73V61.03zm1.534-20.708h21.475v19.174h-3.068v8.437a1.54 1.54 0 0 1-1.534 1.534 1.54 1.54 0 0 1-1.534-1.534v-8.437H43.4v8.437a1.54 1.54 0 0 1-1.534 1.534 1.54 1.54 0 0 1-1.534-1.534v-8.437h-3.068V40.322h0z"/></g><g fill="#3095f2"><use xlink:href="#B"/><path d="M51.834 31.118a1.54 1.54 0 0 0-1.534 1.534 1.54 1.54 0 0 0 1.534 1.534 1.54 1.54 0 0 0 1.534-1.534 1.54 1.54 0 0 0-1.534-1.534z"/></g></g><defs><clipPath id="A"><path fill="#fff" transform="translate(25 25)" d="M0 0h46v46H0z"/></clipPath><path id="B" d="M44.162 31.118a1.54 1.54 0 0 0-1.534 1.534 1.54 1.54 0 0 0 1.534 1.534 1.54 1.54 0 0 0 1.534-1.534 1.54 1.54 0 0 0-1.534-1.534z"/></defs></svg>