<svg xmlns="http://www.w3.org/2000/svg" width="96" height="96" fill="none" xmlns:v="https://vecta.io/nano"><rect width="96" height="96" rx="5" fill="#f1f7fc"/><g clip-path="url(#A)"><g fill="#0d2842"><path d="M49.811 54.992c.405 0 .734-.329.734-.734s-.329-.734-.734-.734H26.577c-.058 0-.109-.051-.109-.109V26.577c0-.058.051-.109.109-.109h35.408c.058 0 .109.051.109.109v12.919c0 .405.329.734.734.734s.734-.329.734-.734V26.577A1.58 1.58 0 0 0 61.985 25H26.577A1.58 1.58 0 0 0 25 26.577v26.838a1.58 1.58 0 0 0 1.577 1.577h13.232v4.433h-5.644c-.406 0-.734.329-.734.734s.329.734.734.734h15.646c.405 0 .734-.329.734-.734s-.329-.734-.734-.734h-1.058v-4.433h1.058zm-2.526 4.433h-6.008v-4.433h6.008v4.433zm2.527-10.875h-21.14c-.405 0-.734.329-.734.734s.329.734.734.734h21.14c.405 0 .734-.329.734-.734s-.329-.734-.734-.734z"/></g><g fill="#3095f2"><path d="M69.422 41.699H53.589a1.58 1.58 0 0 0-1.577 1.577v26.147A1.58 1.58 0 0 0 53.589 71h15.833a1.58 1.58 0 0 0 1.577-1.577V43.276a1.58 1.58 0 0 0-1.577-1.577zM53.48 46.103h16.051V63.66H53.48V46.103zm.109-2.936h15.833c.058 0 .109.051.109.109v1.359H53.48v-1.359c0-.058.051-.109.109-.109zm15.833 26.365H53.589c-.058 0-.109-.051-.109-.109v-4.295h16.051v4.295c0 .058-.051.109-.109.109zm-6.447-2.936h-2.936c-.406 0-.734.329-.734.734s.329.734.734.734h2.936c.406 0 .734-.329.734-.734s-.329-.734-.734-.734z"/></g></g><defs><clipPath id="A"><path fill="#fff" transform="translate(25 25)" d="M0 0h46v46H0z"/></clipPath></defs></svg>