<svg width="96" height="96" viewBox="0 0 96 96" fill="none" xmlns="http://www.w3.org/2000/svg">
<rect width="96" height="96" rx="5" fill="#3095F2"/>
<g clip-path="url(#clip0)">
<path d="M25.1488 29.2198L28.2166 34.5882C28.3201 34.7696 28.4933 34.9009 28.6958 34.9517L31.558 35.6672L42.5026 46.6118L43.5872 45.5275L32.489 34.4295C32.3908 34.3311 32.2678 34.2614 32.1331 34.2276L29.383 33.5376L26.771 28.9643L29.0104 26.7249L33.5856 29.3394L34.2759 32.0895C34.3094 32.2246 34.3794 32.3479 34.4775 32.446L45.5758 43.5443L46.6601 42.4596L35.7155 31.515L35 28.6545C34.9492 28.4516 34.8179 28.2781 34.6365 28.1743L29.2678 25.1068C28.9684 24.9364 28.5917 24.9869 28.3475 25.2301L25.28 28.298C25.0333 28.5406 24.9797 28.9179 25.1488 29.2198Z" fill="white"/>
<path d="M57.03 40.1149L40.1579 56.9873L39.0732 55.9027L55.9457 39.0305L57.03 40.1149Z" fill="white"/>
<path d="M37.2054 57.5842C37.0666 57.3533 36.8174 57.2122 36.5479 57.2122H31.9465C31.6774 57.2122 31.4278 57.3533 31.2893 57.5842L28.9885 61.4187C28.8424 61.6616 28.8424 61.9654 28.9885 62.2087L31.2893 66.0431C31.4278 66.2738 31.6774 66.4151 31.9465 66.4151H36.5479C36.8174 66.4151 37.0666 66.2738 37.2054 66.0431L39.506 62.2087C39.6521 61.9654 39.6521 61.6616 39.506 61.4187L37.2054 57.5842ZM36.1141 64.8812H32.3806L30.54 61.8137L32.3806 58.7458H36.1141L37.9547 61.8137L36.1141 64.8812Z" fill="white"/>
<path d="M61.8551 43.4076C66.9203 43.4247 71.0406 39.3321 71.0576 34.2669C71.0602 33.4959 70.9655 32.728 70.7759 31.9806C70.6737 31.5695 70.2575 31.3193 69.8465 31.4215C69.7114 31.4553 69.5884 31.525 69.49 31.6231L64.7159 36.394L60.9282 35.1317L59.6649 31.3449L64.4389 26.5699C64.7383 26.2702 64.738 25.7846 64.4383 25.4852C64.3396 25.3865 64.2153 25.3165 64.0793 25.283C59.1671 24.039 54.177 27.0125 52.933 31.9244C52.744 32.6696 52.6497 33.4356 52.6522 34.2045C52.6541 34.8083 52.7162 35.4103 52.8387 36.0015L36.0429 52.797C35.4516 52.6749 34.8497 52.6127 34.2462 52.6105C29.1633 52.6105 25.043 56.7308 25.043 61.8137C25.043 66.8963 29.1633 71.0166 34.2462 71.0166C39.3287 71.0166 43.449 66.8963 43.449 61.8137C43.4471 61.2099 43.3847 60.6079 43.2626 60.0167L47.2835 55.9957L49.042 57.7543C49.3418 58.0537 49.827 58.0537 50.1267 57.7543L50.51 57.3706C50.8463 57.0365 51.3899 57.0365 51.7262 57.3706C52.0622 57.7057 52.0629 58.2496 51.7278 58.5856C51.7275 58.5859 51.7269 58.5865 51.7262 58.5872L51.3429 58.9705C51.0435 59.2699 51.0435 59.7554 51.3429 60.0548L60.4915 69.2034C62.8978 71.6318 66.8168 71.6494 69.2451 69.2432C71.6731 66.8369 71.6908 62.9176 69.2846 60.4896C69.2716 60.4763 69.2584 60.4631 69.2451 60.4498L60.0965 51.3015C59.7971 51.0021 59.3116 51.0021 59.0122 51.3015L58.6289 51.6849C58.2922 52.0193 57.749 52.0193 57.4123 51.6849C57.0766 51.3498 57.0757 50.8059 57.4108 50.4702C57.4114 50.4696 57.412 50.4693 57.4123 50.4686L57.796 50.085C58.0954 49.7856 58.0954 49.3001 57.796 49.0007L56.0374 47.2421L60.0583 43.2212C60.6496 43.3433 61.2515 43.4058 61.8551 43.4076ZM64.8683 69.483C64.3112 69.482 63.7587 69.3814 63.2372 69.1855L69.2268 63.1955C70.1307 65.5999 68.9145 68.2816 66.5101 69.1855C65.9855 69.3826 65.4293 69.4836 64.8683 69.483ZM56.18 49.5506C55.3307 50.5636 55.4639 52.0735 56.4769 52.9225C57.3672 53.6687 58.6648 53.668 59.5542 52.9203L68.1608 61.5345C68.2542 61.6282 68.3416 61.7269 68.4261 61.8273L61.869 68.3844C61.7683 68.3002 61.6696 68.2128 61.5759 68.1191L52.9626 59.5053C53.8119 58.4922 53.6788 56.9823 52.6658 56.1333C51.7755 55.3868 50.4775 55.3878 49.5882 56.1352L48.3612 54.9082L54.9528 48.3265L56.18 49.5506ZM59.2769 41.8371L41.8791 59.2314C41.6883 59.422 41.6116 59.6987 41.6766 59.9602C42.7288 64.0922 40.232 68.2948 36.0997 69.3467C31.9677 70.3988 27.765 67.902 26.7129 63.7697C25.661 59.6378 28.1578 55.4351 32.2901 54.3829C33.5401 54.0649 34.8497 54.0649 36.0997 54.3829C36.3612 54.447 36.6373 54.3703 36.8284 54.1807L54.2221 36.7861C54.4126 36.5956 54.4893 36.3189 54.4237 36.0577C53.3788 31.9739 55.8421 27.8164 59.9258 26.7712C60.6975 26.574 61.4957 26.4983 62.2908 26.5478L58.2452 30.5949C58.0398 30.8 57.9679 31.1038 58.0597 31.3792L59.5933 35.981C59.67 36.2097 59.8498 36.3896 60.0789 36.4656L64.6806 37.9995C64.9557 38.0913 65.2595 38.0197 65.4649 37.8146L69.5105 33.7691C69.5196 33.9155 69.5243 34.0603 69.5243 34.2045C69.5458 38.4185 66.1473 41.852 61.9333 41.8737C61.2818 41.8769 60.6325 41.7967 60.0016 41.6352C59.74 41.5699 59.4633 41.6463 59.2728 41.8368H59.2769V41.8371Z" fill="white"/>
<path d="M64.6989 63.5719L63.6143 64.6566L55.9453 56.9876L57.0297 55.903L64.6989 63.5719Z" fill="white"/>
</g>
<defs>
<clipPath id="clip0">
<rect width="46" height="46" fill="white" transform="translate(25 25)"/>
</clipPath>
</defs>
</svg>
